<svg xmlns="http://www.w3.org/2000/svg" width="50" height="50" viewBox="0 0 50 50">
  <g id="Group_2" data-name="Group 2" transform="translate(-372.5 -319.5)">
    <circle id="Ellipse_3" data-name="Ellipse 3" cx="25" cy="25" r="25" transform="translate(372.5 319.5)" fill="#111" opacity="0.102"/>
    <path id="Shape_23" data-name="Shape 23" d="M401.23,354.857c-1.966-.019-3.932,0-5.9,0-1.951,0-3.9.01-5.854,0a2.83,2.83,0,0,1-2.952-2.946,2.941,2.941,0,0,1,.291-1.11,9.073,9.073,0,0,1,6.679-5.2,9.476,9.476,0,0,1,10.327,4.991,2.868,2.868,0,0,1-2.56,4.266Zm4.846-9.074c-1.388-.711-.922-.7-2.293-.011-.342.173-.666.517-1.1.189s-.173-.732-.131-1.112a3.114,3.114,0,0,1,.091-.481,1.055,1.055,0,0,0-.374-1.231,4.243,4.243,0,0,1-.782-.729.869.869,0,0,1-.171-.671c.05-.164.335-.309.541-.359a6.942,6.942,0,0,1,1.234-.174.683.683,0,0,0,.635-.468,9.215,9.215,0,0,1,.536-1.125.776.776,0,0,1,.525-.368.792.792,0,0,1,.518.381c.21.337.31.748.535,1.073a1.331,1.331,0,0,0,.667.485,8.666,8.666,0,0,0,1.232.185.569.569,0,0,1,.418.97,7.067,7.067,0,0,1-.682.825,1.162,1.162,0,0,0-.29,1.19c.083.346.148.7.205,1.05.066.4-.175.7-.655.706C406.577,346.028,406.324,345.91,406.076,345.783Zm-15.169-6.506a4.437,4.437,0,0,1,4.4-4.414,4.374,4.374,0,0,1,4.4,4.388,4.435,4.435,0,0,1-4.387,4.425H395.3A4.444,4.444,0,0,1,390.908,339.277Z" fill="#fff" opacity="0.8"/>
  </g>
</svg>
