<svg xmlns="http://www.w3.org/2000/svg" width="50" height="50" viewBox="0 0 50 50">
  <g id="Group_5" data-name="Group 5" transform="translate(-1255.5 -319.5)">
    <circle id="Ellipse_3" data-name="Ellipse 3" cx="25" cy="25" r="25" transform="translate(1255.5 319.5)" fill="#111" opacity="0.102"/>
    <path id="Shape_26" data-name="Shape 26" d="M1289.276,356.917c-.545-.251-1.057-.582-1.617-.785a1.592,1.592,0,0,0-1,0c-.545.194-1.046.511-1.573.761-.638.305-1.183-.06-1.157-.841.072-.49.12-1.06.248-1.611a1.144,1.144,0,0,0-.4-1.253c-.393-.338-.736-.735-1.11-1.1-.241-.232-.435-.524-.247-.814a1.364,1.364,0,0,1,.721-.555c.592-.156,1.222-.164,1.817-.311a1.268,1.268,0,0,0,.693-.5,13.145,13.145,0,0,0,.748-1.473c.17-.356.383-.664.819-.657s.636.326.8.68a13.532,13.532,0,0,0,.752,1.471,1.194,1.194,0,0,0,.655.478,16.721,16.721,0,0,0,1.775.287.856.856,0,0,1,.791.548.791.791,0,0,1-.305.9c-.405.352-.78.737-1.185,1.088a1.047,1.047,0,0,0-.374,1.082c.113.589.187,1.186.251,1.784.058.552-.25.914-.69.914A1.011,1.011,0,0,1,1289.276,356.917Zm-17.405-4.472a2.986,2.986,0,0,1-3.25-3.243v-6.669a26.366,26.366,0,0,0,8.457,2,2.024,2.024,0,0,0,1.012,1.683,2.92,2.92,0,0,0,1.347.265,1.979,1.979,0,0,0,1.69-2.042,32.756,32.756,0,0,0,8.736-1.987v5.081c-.138-.211-.221-.334-.3-.459a2.677,2.677,0,0,0-4.711.083,2.646,2.646,0,0,1-2.236,1.66c-1.606.231-2.365,1.732-2.034,3.631h-8.712Zm8.358-11.677a2.82,2.82,0,0,0-1.308-.409c-1.012-.035-1.691.712-1.951,2.054a19.9,19.9,0,0,1-4.842-.894c-1.1-.346-2.17-.756-3.247-1.155-.14-.052-.333-.2-.344-.323a3.068,3.068,0,0,1,2.018-3.532,3.2,3.2,0,0,1,1.046-.168c1.086-.021,2.173-.007,3.337-.007,0-.447,0-.863,0-1.28a1.956,1.956,0,0,1,2.022-2.031q2.29-.02,4.581,0a1.978,1.978,0,0,1,1.981,1.937c.017.469,0,.939,0,1.473.888,0,1.743-.01,2.6,0a7.394,7.394,0,0,1,1.5.1,2.8,2.8,0,0,1,2.172,2.714c.029,1.092.03,1.093-.976,1.463a30.751,30.751,0,0,1-7.007,1.748c-.24.029-.483.029-.766.044A1.973,1.973,0,0,0,1280.229,340.768Zm-3.278-4.448h4.523v-1.242h-4.523Z" fill="#fff" opacity="0.8"/>
  </g>
</svg>
