<svg xmlns="http://www.w3.org/2000/svg" width="19.964" height="20.002" viewBox="0 0 19.964 20.002">
  <path id="Shape_14" data-name="Shape 14" d="M30.422,159.528a2.338,2.338,0,0,1-2.4-2.382q-.009-1.521,0-3.044a2.34,2.34,0,0,1,2.4-2.384c.766,0,1.532,0,2.3,0s1.506,0,2.258,0a2.338,2.338,0,0,1,2.4,2.383q.009,1.521,0,3.043a2.336,2.336,0,0,1-2.4,2.384q-1.139,0-2.277,0T30.422,159.528Zm4.546-1.564a.781.781,0,0,0,.846-.852q.009-1.5,0-3a.768.768,0,0,0-.832-.825q-2.276-.011-4.552,0a.778.778,0,0,0-.846.851q-.009,1.482,0,2.964a.784.784,0,0,0,.871.867c.739.005,1.478,0,2.218,0C33.437,157.965,34.2,157.971,34.968,157.964Zm6.079,1.565a2.341,2.341,0,0,1-2.424-2.438q-.005-3.024,0-6.049a2.342,2.342,0,0,1,2.452-2.449q2.238,0,4.478,0a2.341,2.341,0,0,1,2.424,2.437c0,1.015,0,2.029,0,3.044s0,2.03,0,3.044a2.34,2.34,0,0,1-2.413,2.41q-1.067,0-2.134,0Q42.238,159.532,41.046,159.529Zm.074-9.372c-.645,0-.937.284-.937.919q0,2.983,0,5.968c0,.635.291.92.934.921q2.18,0,4.361,0c.66,0,.936-.283.938-.958,0-.975,0-1.95,0-2.926s0-1.976,0-2.965c0-.676-.275-.958-.936-.959H41.12Zm-10.66.311a2.345,2.345,0,0,1-2.439-2.462q0-3.005,0-6.009a2.343,2.343,0,0,1,2.436-2.464q2.24,0,4.478,0a2.342,2.342,0,0,1,2.439,2.462c0,1,0,2,0,3s0,2.029,0,3.044a2.343,2.343,0,0,1-2.437,2.426l-2.239,0Zm.056-9.372c-.644,0-.932.284-.934.922,0,.988,0,1.976,0,2.965s0,1.95,0,2.926c0,.727.264,1,.978,1h4.282c.7,0,.973-.273.973-.962q0-2.944,0-5.891c0-.672-.277-.955-.939-.956l-2.392,0Zm10.426,6.244A2.329,2.329,0,0,1,38.624,145q-.013-1.561,0-3.121a2.336,2.336,0,0,1,2.361-2.343c.765-.006,1.531,0,2.3,0s1.557-.006,2.335,0a2.335,2.335,0,0,1,2.358,2.345q.013,1.561,0,3.121a2.329,2.329,0,0,1-2.321,2.341q-1.178.009-2.356.009T40.942,147.341Zm.175-6.244c-.644,0-.932.284-.934.92q-.005,1.423,0,2.847a.8.8,0,0,0,.9.916c.726,0,1.453,0,2.18,0s1.453,0,2.179,0c.7,0,.973-.273.975-.959q0-1.385,0-2.769c0-.671-.279-.954-.94-.955l-2.391,0Z" transform="translate(-28.018 -139.53)" fill="#fff"/>
</svg>
