<svg xmlns="http://www.w3.org/2000/svg" width="50" height="50" viewBox="0 0 50 50">
  <g id="Group_4" data-name="Group 4" transform="translate(-961.5 -319.5)">
    <circle id="Ellipse_3" data-name="Ellipse 3" cx="25" cy="25" r="25" transform="translate(961.5 319.5)" fill="#111" opacity="0.102"/>
    <path id="Shape_25" data-name="Shape 25" d="M984.162,354.848q-3.236,0-6.472,0a2.689,2.689,0,0,1-2.935-2.924c0-2.281,0-4.561,0-6.883,1.234.373,2.415.756,3.611,1.085a28.04,28.04,0,0,0,5.946.995c.346.019.5.1.537.495a1.394,1.394,0,0,0,2.751-.005c.036-.355.157-.467.5-.487a30.489,30.489,0,0,0,9.109-1.978c.112-.042.229-.073.391-.124v1.133q0,2.913,0,5.827a2.672,2.672,0,0,1-2.9,2.867q-2.342,0-4.685,0Zm3.435-9.607c-.231-1.208-.658-1.673-1.5-1.658-.779.014-1.245.518-1.422,1.6-.616-.04-1.242-.056-1.862-.125a30.534,30.534,0,0,1-7.676-1.908c-.293-.113-.406-.247-.386-.562.029-.461.006-.925.007-1.388a2.68,2.68,0,0,1,2.83-2.852c1.218-.012,2.435-.006,3.654-.01a1.068,1.068,0,0,0,.168-.043c0-.455-.008-.9,0-1.342a2.064,2.064,0,0,1,2.152-2.107c.543,0,1.085,0,1.629,0,.983,0,1.966.009,2.95-.011a2.256,2.256,0,0,1,2.44,2.444c-.03.3,0,.609,0,.967.488,0,.931,0,1.373,0,.325,0,.651,0,.977,0a21.8,21.8,0,0,1,2.3.068,2.559,2.559,0,0,1,2.274,2.557c.016.6-.008,1.2.01,1.8a.4.4,0,0,1-.293.442,30.259,30.259,0,0,1-6.29,1.767c-.911.147-1.831.242-2.747.352a1.849,1.849,0,0,1-.213.011C987.844,345.249,987.719,345.241,987.6,345.241Zm-3.934-8.477a.524.524,0,0,0-.366.351,9.545,9.545,0,0,0-.018,1.206h5.414a11.572,11.572,0,0,0-.016-1.239.49.49,0,0,0-.35-.32q-1.154-.016-2.309-.016Q984.84,336.746,983.663,336.764Z" fill="#fff" opacity="0.8"/>
  </g>
</svg>
