<svg xmlns="http://www.w3.org/2000/svg" width="50" height="50" viewBox="0 0 50 50">
  <g id="Group_3" data-name="Group 3" transform="translate(-666.5 -319.5)">
    <circle id="Ellipse_3" data-name="Ellipse 3" cx="25" cy="25" r="25" transform="translate(666.5 319.5)" fill="#111" opacity="0.102"/>
    <path id="Shape_24" data-name="Shape 24" d="M701.109,342.231a9.675,9.675,0,0,1-2.918,7.083.587.587,0,0,0-.154.778c.533,1.214,1.022,2.447,1.547,3.665a.98.98,0,0,1-.139,1.194,1.084,1.084,0,0,1-1.233.264c-.493-.184-1-.327-1.489-.527-.274-.113-.407-.03-.539.2-.255.444-.528.877-.791,1.316a1.088,1.088,0,0,1-1.093.633,1.047,1.047,0,0,1-.857-.8c-.433-1.151-.9-2.291-1.328-3.443a.593.593,0,0,0-1.112.007c-.412,1.108-.852,2.205-1.274,3.309a1.221,1.221,0,0,1-.989.928,1.167,1.167,0,0,1-1.176-.742c-.238-.417-.5-.817-.742-1.234a.344.344,0,0,0-.5-.177c-.489.194-.995.345-1.488.528a1.082,1.082,0,0,1-1.236-.249,1.062,1.062,0,0,1-.144-1.212,29.554,29.554,0,0,1,1.138-2.846,1.632,1.632,0,0,0-.36-2.164,9.621,9.621,0,1,1,16.71-8.074A14.609,14.609,0,0,1,701.109,342.231Zm-9.616,5.065c.944,0,1.887,0,2.831,0,.96,0,1.425-.539,1.252-1.473a4.514,4.514,0,0,0-1.247-2.435,1.061,1.061,0,0,0-1.286-.275,4.1,4.1,0,0,1-3.348-.089.64.64,0,0,0-.813.12,4.325,4.325,0,0,0-1.447,2.886c-.078.822.341,1.258,1.18,1.264C689.575,347.3,690.534,347.3,691.494,347.3Zm-.043-5.84a2.206,2.206,0,0,0,2.274-2.219,2.262,2.262,0,1,0-4.524-.026A2.212,2.212,0,0,0,691.451,341.456Z" fill="#fff"/>
  </g>
</svg>
