<svg xmlns="http://www.w3.org/2000/svg" width="41.04" height="41.04" viewBox="0 0 41.04 41.04">
  <g id="Notifoication_" data-name="Notifoication&apos;" transform="translate(-1188.34 -29.93)">
    <circle id="Ellipse_1" data-name="Ellipse 1" cx="20.52" cy="20.52" r="20.52" transform="translate(1188.34 29.93)" fill="#2c2e3d" opacity="0.051"/>
    <path id="Shape_23" data-name="Shape 23" d="M1211.837,58.006a2.655,2.655,0,0,1-.784,2.4,2.26,2.26,0,0,1-1.535.59,2.315,2.315,0,0,1-1.868-.9,2.871,2.871,0,0,1-.5-2.068h-7.641V56.454c.2,0,.405,0,.609,0a2.344,2.344,0,0,0,2.333-2.35c.01-1.513,0-3.027,0-4.54a7.033,7.033,0,0,1,6.112-7.135,1.043,1.043,0,0,0,.144-.051v-1.4h1.551v1.4c.348.074.664.131.976.21a7.034,7.034,0,0,1,5.3,6.743c.013,1.513,0,3.027,0,4.54a2.368,2.368,0,0,0,2.571,2.585h.375v1.551Zm-3.106.025c-.016.5-.122.986.379,1.288a.713.713,0,0,0,.874-.068c.406-.334.3-.781.273-1.22Z" fill="#302a29" opacity="0.8"/>
  </g>
</svg>
